<svg xmlns="http://www.w3.org/2000/svg" width="27" height="26" fill="none" viewBox="0 0 27 26"><path fill="url(#a)" d="M23.598 11.127s-3.62 3.334-3.21 13.085H7.275s.205-7-4.03-11.918c0 0 4.508.542 8.06 8.167 0 0 .41-13.085 7.922-19.002 0 0-3.278 8.167-2.185 15.085 0 0 1.912-3.917 6.557-5.417z"/><path fill="url(#b)" d="M7.8 4.538s2.993 3.558 3.561 10.263c0 0 .297-1.902 1.166-4.219 0 0-.884-2.728-4.726-6.044"/><defs><linearGradient id="a" x1="8.822" x2="22.102" y1="7.952" y2="23.114" gradientUnits="userSpaceOnUse"><stop stop-color="#CCE18F"/><stop offset="1" stop-color="#90C254"/></linearGradient><linearGradient id="b" x1="9.707" x2="11.935" y1="8.777" y2="12.691" gradientUnits="userSpaceOnUse"><stop stop-color="#CCE18F"/><stop offset=".27" stop-color="#C1DB84"/><stop offset=".73" stop-color="#A3CC67"/><stop offset="1" stop-color="#90C254"/></linearGradient></defs></svg>